<?xml version="1.0" standalone="no"?>
<!DOCTYPE svg PUBLIC "-//W3C//DTD SVG 20010904//EN"
 "http://www.w3.org/TR/2001/REC-SVG-20010904/DTD/svg10.dtd">
<svg version="1.0" xmlns="http://www.w3.org/2000/svg"
 width="730.000000pt" height="641.000000pt" viewBox="0 0 730.000000 641.000000"
 preserveAspectRatio="xMidYMid meet">

<g transform="translate(0.000000,641.000000) scale(0.100000,-0.100000)"
fill="#000000" stroke="none">
<path d="M3334 6386 c-95 -31 -204 -135 -288 -276 -27 -45 -82 -157 -123 -249
-41 -91 -95 -204 -120 -251 -73 -135 -204 -350 -213 -350 -18 0 -159 164 -188
218 -17 31 -51 118 -77 192 -26 74 -59 157 -73 183 -45 83 -139 120 -212 82
-51 -26 -79 -75 -108 -191 -14 -60 -27 -110 -28 -112 -1 -2 -60 38 -130 88
-71 51 -144 98 -163 106 -94 39 -207 -1 -250 -89 -55 -113 -71 -342 -70 -984
0 -421 3 -487 24 -579 l7 -31 -49 -5 c-60 -6 -213 -79 -338 -162 -192 -128
-445 -421 -445 -515 0 -49 33 -81 81 -81 40 0 53 12 114 105 22 33 78 100 125
149 84 88 238 216 259 216 6 0 11 -12 11 -26 0 -101 132 -201 292 -221 75 -10
75 -1 17 -178 l-39 -121 -122 -124 c-177 -180 -230 -279 -192 -356 27 -53 66
-79 118 -78 59 1 91 26 151 118 94 146 203 248 347 325 106 58 207 82 348 82
227 1 417 -64 598 -203 68 -53 122 -114 184 -208 l50 -75 -43 -7 c-23 -4 -50
-15 -60 -24 -21 -19 -86 -141 -90 -169 -6 -38 11 -74 42 -90 54 -28 95 -3 140
88 36 70 54 75 44 11 -22 -146 -149 -274 -377 -378 -358 -163 -924 -206 -1186
-90 -87 38 -121 69 -152 139 -35 78 -68 105 -127 105 -125 0 -169 -107 -102
-247 34 -72 35 -69 -22 -183 -72 -147 -316 -403 -652 -684 -32 -26 -65 -62
-73 -79 -23 -43 -14 -111 20 -146 14 -15 26 -30 26 -33 0 -3 -28 -48 -63 -99
-80 -118 -123 -195 -132 -236 -17 -82 51 -175 139 -188 37 -6 55 -3 93 16 43
21 57 38 129 152 192 305 431 546 709 717 112 69 319 165 464 214 183 63 346
105 681 176 504 107 639 149 906 283 1027 515 1667 1246 1888 2157 45 188 60
326 61 560 0 212 0 216 -26 265 -45 89 -140 119 -223 72 -75 -42 -79 -58 -81
-326 -2 -209 -5 -251 -28 -371 -96 -493 -303 -893 -668 -1291 -122 -132 -467
-428 -501 -429 -5 0 -8 56 -8 125 0 311 -54 519 -167 645 -88 98 -267 200
-478 273 -240 83 -445 112 -730 104 -121 -3 -214 -10 -255 -20 -36 -9 -106
-26 -157 -38 l-92 -22 -63 23 c-139 50 -242 119 -224 149 4 5 50 33 103 62
116 63 158 105 265 262 136 200 323 380 504 485 39 23 78 52 86 64 39 59 28
127 -27 178 -22 21 -36 25 -86 25 -45 -1 -60 3 -63 15 -13 42 -26 183 -26 273
l0 101 52 -79 c28 -44 98 -126 155 -183 57 -56 103 -111 103 -121 0 -34 44
-85 85 -99 55 -18 103 -3 148 48 89 97 295 439 408 675 162 339 190 392 228
435 l40 45 1 -58 c2 -275 -169 -772 -376 -1096 -57 -89 -67 -147 -34 -199 21
-34 72 -62 111 -62 37 0 90 32 115 70 40 60 324 189 494 226 123 26 303 13
317 -23 9 -22 -43 -97 -110 -159 -70 -66 -185 -131 -290 -163 -91 -28 -103
-35 -116 -72 -14 -39 2 -76 41 -98 35 -20 107 -6 219 43 128 55 188 95 280
186 97 96 140 171 147 255 8 96 -39 152 -167 195 -75 25 -235 27 -343 5 -62
-13 -220 -64 -280 -89 -13 -6 -4 21 33 104 130 290 204 567 224 830 11 147
-18 272 -79 338 -51 57 -149 82 -222 58z"/>
<path d="M4990 5689 c-144 -28 -299 -169 -300 -272 0 -40 23 -88 58 -121 23
-21 44 -30 81 -34 69 -6 92 1 151 52 69 59 90 63 156 31 358 -175 820 -1586
938 -2870 42 -456 52 -1015 25 -1415 -7 -118 -14 -258 -14 -310 0 -85 3 -98
24 -127 70 -94 226 -82 275 21 31 67 54 357 63 829 l6 318 44 47 c131 139 257
325 343 504 98 205 142 371 144 535 1 83 -1 95 -21 115 -33 33 -89 30 -119 -6
-19 -21 -24 -39 -24 -80 0 -79 -27 -219 -62 -321 -55 -162 -185 -396 -286
-515 l-30 -35 -6 75 c-3 41 -10 138 -16 215 -86 1164 -428 2421 -818 3010
-179 269 -397 396 -612 354z"/>
<path d="M4333 5069 c-41 -20 -73 -66 -73 -104 0 -67 74 -125 159 -125 65 0
109 18 144 59 48 57 26 140 -46 174 -49 24 -132 22 -184 -4z"/>
<path d="M6115 4619 c-32 -18 -45 -40 -45 -78 0 -30 8 -42 52 -81 109 -93 194
-187 228 -250 33 -62 35 -70 35 -163 0 -96 1 -99 28 -123 24 -20 39 -24 94
-24 48 0 79 -6 112 -22 72 -35 179 -149 275 -295 48 -73 93 -137 100 -142 7
-6 27 -14 44 -17 26 -5 36 -1 62 24 52 53 48 64 -114 310 -178 269 -256 436
-256 546 0 44 -5 61 -24 83 -23 27 -29 28 -108 28 -77 0 -90 3 -158 37 -41 21
-114 67 -162 103 -90 68 -129 83 -163 64z"/>
<path d="M5374 4550 c-30 -12 -64 -58 -64 -86 0 -13 25 -104 55 -202 213 -692
316 -1346 285 -1817 -9 -143 -9 -168 5 -194 18 -36 43 -51 85 -51 74 0 96 38
110 192 43 490 -77 1264 -307 1973 -47 143 -58 164 -98 181 -39 16 -42 16 -71
4z"/>
<path d="M3945 4498 c-48 -28 -59 -78 -25 -121 12 -15 81 -55 163 -95 78 -38
151 -76 162 -85 20 -15 19 -16 -8 -37 -36 -28 -38 -86 -4 -118 49 -46 195 -74
274 -53 53 14 99 53 106 88 11 60 -33 116 -158 196 -104 67 -441 237 -469 237
-11 0 -30 -6 -41 -12z"/>
<path d="M2200 4377 c-108 -39 -190 -79 -200 -98 -29 -53 10 -132 66 -132 35
0 251 88 279 114 25 25 25 83 -1 109 -30 31 -72 33 -144 7z"/>
<path d="M3581 4144 c-15 -20 -21 -41 -21 -80 0 -50 -2 -56 -32 -74 -55 -33
-157 -44 -298 -31 -69 6 -139 11 -156 11 -41 0 -72 -26 -80 -66 -5 -25 -1 -37
23 -63 24 -27 38 -33 108 -42 114 -17 299 -16 373 0 136 30 222 113 230 221 8
106 -18 150 -87 150 -31 0 -44 -6 -60 -26z"/>
<path d="M384 3250 c-148 -74 -98 -340 64 -340 82 0 140 89 129 195 -13 126
-101 192 -193 145z"/>
<path d="M7163 3190 c-43 -17 -56 -77 -28 -130 38 -74 135 -64 159 17 10 31
-21 91 -55 108 -32 17 -44 18 -76 5z"/>
<path d="M1827 3139 c-53 -13 -92 -34 -174 -95 -121 -91 -191 -196 -199 -302
-8 -95 37 -146 126 -145 107 2 401 177 470 281 73 111 0 245 -145 265 -22 3
-57 1 -78 -4z m130 -134 c28 -32 28 -34 0 -76 -44 -66 -298 -219 -368 -222
-33 -2 -34 -1 -31 31 3 44 34 103 79 153 43 47 144 121 188 137 47 18 106 7
132 -23z"/>
<path d="M954 2682 c-66 -42 -79 -130 -28 -191 45 -54 115 -62 175 -20 59 41
64 138 11 192 -40 39 -112 48 -158 19z"/>
<path d="M4528 2598 c-70 -77 -307 -684 -418 -1067 -60 -211 -101 -393 -95
-421 16 -63 89 -96 143 -64 39 23 43 32 92 225 96 380 229 751 432 1210 24 54
19 89 -17 125 -38 37 -99 34 -137 -8z"/>
<path d="M453 2580 c-41 -17 -55 -53 -48 -122 10 -96 -5 -141 -65 -184 -50
-36 -60 -50 -60 -88 0 -40 37 -73 112 -102 58 -22 84 -40 134 -91 66 -67 85
-74 134 -48 31 16 40 40 59 154 6 35 22 85 36 112 14 27 25 59 25 72 0 36 -36
75 -75 83 -42 8 -84 52 -124 133 -16 31 -35 62 -43 68 -20 17 -60 23 -85 13z"/>
<path d="M1320 2575 c-18 -22 -64 -45 -90 -45 -22 0 -70 -41 -70 -60 0 -5 17
-28 37 -51 20 -22 51 -68 68 -101 17 -34 38 -66 46 -71 27 -17 66 0 77 32 6
18 32 45 61 66 61 44 69 83 25 112 -14 9 -38 42 -53 72 -23 48 -31 56 -57 59
-19 2 -36 -3 -44 -13z"/>
<path d="M1926 2517 c-46 -46 -28 -116 37 -135 30 -9 208 -25 286 -25 25 0 41
7 58 27 28 33 29 65 3 99 -28 36 -72 46 -226 54 l-132 6 -26 -26z"/>
<path d="M3883 2325 c-11 -8 -51 -57 -88 -110 -38 -53 -107 -133 -155 -178
-135 -129 -265 -187 -418 -187 -85 0 -124 -16 -141 -59 -17 -39 -9 -61 57
-155 49 -69 57 -87 60 -136 4 -59 -8 -93 -63 -169 -14 -19 -25 -47 -25 -63 0
-41 40 -78 85 -78 31 0 45 10 113 78 129 132 270 184 429 160 88 -13 117 -3
137 43 10 23 11 42 4 68 -32 120 -38 160 -32 211 7 72 49 196 118 351 31 70
56 141 56 158 0 65 -82 105 -137 66z"/>
<path d="M5685 2121 c-96 -41 -70 -186 34 -186 45 0 69 17 88 63 11 27 11 37
0 65 -8 17 -21 38 -29 44 -20 17 -69 24 -93 14z"/>
<path d="M2621 1523 c-157 -93 -344 -280 -507 -508 -109 -151 -129 -194 -114
-239 19 -60 67 -85 124 -66 26 8 47 31 98 108 151 226 326 414 484 519 101 67
121 104 92 168 -13 30 -55 55 -90 55 -13 0 -52 -17 -87 -37z"/>
<path d="M5535 1370 c-533 -60 -1095 -357 -1607 -848 -63 -62 -118 -112 -121
-112 -3 0 -29 16 -58 36 -144 97 -385 193 -585 233 -176 34 -311 44 -537 38
-219 -6 -349 -21 -522 -62 l-99 -23 -56 55 c-105 105 -255 187 -428 236 -66
18 -105 21 -277 21 -223 1 -283 -8 -480 -71 -93 -30 -117 -42 -152 -77 -56
-56 -66 -114 -32 -183 43 -86 126 -113 231 -73 139 51 241 72 388 77 127 5
156 3 229 -16 153 -38 265 -108 355 -220 80 -99 146 -119 268 -81 90 28 294
67 428 81 174 18 454 6 606 -25 217 -46 401 -124 537 -229 117 -89 129 -97
166 -108 27 -8 49 -8 81 1 39 10 66 33 200 170 219 224 363 345 575 486 379
252 740 373 1118 374 136 0 180 15 217 75 28 45 25 136 -5 177 -43 57 -87 71
-230 74 -71 1 -166 -1 -210 -6z"/>
</g>
</svg>
