<?xml version="1.0" standalone="no"?>
<!DOCTYPE svg PUBLIC "-//W3C//DTD SVG 20010904//EN"
 "http://www.w3.org/TR/2001/REC-SVG-20010904/DTD/svg10.dtd">
<svg version="1.0" xmlns="http://www.w3.org/2000/svg"
 width="483.000000pt" height="482.000000pt" viewBox="0 0 483.000000 482.000000"
 preserveAspectRatio="xMidYMid meet">

<g transform="translate(0.000000,482.000000) scale(0.100000,-0.100000)"
fill="#000000" stroke="none">
<path d="M2615 4792 c-33 -2 -63 -9 -67 -15 -4 -7 -8 -506 -8 -1109 l0 -1097
22 -15 c20 -14 143 -16 1125 -16 1080 0 1103 0 1113 19 7 13 10 376 10 1103 0
916 -2 1087 -14 1103 -11 15 -31 21 -88 26 -75 6 -1984 8 -2093 1z m2113
-1124 l2 -1048 -1055 0 -1055 0 0 1043 c0 574 3 1046 6 1050 3 3 477 5 1053 4
l1046 -2 3 -1047z"/>
<path d="M3132 3798 c-15 -15 -17 -334 -2 -343 6 -3 19 -3 30 0 18 6 20 17 22
138 l3 132 73 -128 c74 -127 96 -152 126 -141 24 9 27 35 24 199 l-3 150 -25
0 -25 0 -5 -123 -5 -124 -63 111 c-35 61 -70 118 -78 126 -18 18 -55 20 -72 3z"/>
<path d="M3512 3798 c-8 -8 -12 -62 -12 -175 0 -137 2 -165 15 -169 8 -4 22 0
31 7 13 11 15 33 12 136 -1 68 0 123 3 123 3 0 39 -56 78 -125 72 -124 95
-150 125 -139 24 9 27 35 24 199 l-3 150 -25 0 -25 0 -5 -125 -5 -125 -59 105
c-32 58 -68 115 -79 128 -22 24 -56 29 -75 10z"/>
<path d="M3862 3778 c3 -21 9 -23 90 -28 l88 -5 -95 -119 c-129 -162 -130
-160 49 -164 141 -3 161 2 149 35 -4 10 -31 13 -104 13 -54 0 -99 4 -99 9 0 5
43 62 95 127 52 66 94 126 93 134 -3 12 -27 16 -136 18 l-133 3 3 -23z"/>
<path d="M4219 3781 c-29 -23 -31 -81 -4 -111 15 -17 29 -20 69 -18 28 2 51 8
54 16 3 9 -3 10 -23 2 -39 -15 -63 -12 -85 10 -27 27 -25 62 3 88 27 26 59 28
81 6 18 -17 22 -74 6 -74 -5 0 -10 15 -10 33 0 29 -3 33 -30 35 -24 2 -33 -3
-42 -24 -17 -37 0 -59 48 -60 21 -1 45 3 52 8 18 16 15 72 -6 91 -25 23 -84
21 -113 -2z m71 -40 c0 -21 -13 -41 -26 -41 -14 0 -19 31 -7 43 10 10 33 8 33
-2z"/>
<path d="M26 4768 c-14 -20 -16 -141 -16 -1104 0 -1049 1 -1083 19 -1106 l19
-23 1097 -3 c750 -1 1102 1 1115 8 20 11 20 29 20 1114 0 1014 -1 1105 -17
1117 -13 12 -202 14 -1119 17 l-1103 2 -15 -22z m2171 -715 c-4 -526 -8 -683
-21 -781 -30 -230 -77 -418 -148 -590 l-30 -72 -245 2 -245 3 -19 49 c-21 56
-46 202 -36 212 4 4 21 -4 39 -18 18 -14 47 -32 64 -41 25 -13 33 -25 43 -71
11 -52 15 -56 40 -56 15 0 36 9 46 20 10 11 36 21 59 24 121 15 125 15 131 -4
11 -34 33 -30 65 12 37 52 39 90 6 195 -41 131 -64 231 -91 408 -28 177 -28
174 -9 478 4 64 3 102 -4 109 -19 19 -60 -1 -84 -39 l-23 -38 -6 105 c-10 159
-59 290 -109 290 -29 0 -39 -22 -42 -95 -3 -80 6 -90 -74 82 -55 120 -128 224
-213 306 -100 97 -157 103 -154 16 1 -52 40 -152 134 -348 38 -79 69 -145 69
-146 0 -2 -19 2 -42 7 -24 5 -70 7 -103 5 l-60 -6 -49 92 c-110 207 -213 364
-258 395 -29 21 -64 7 -77 -29 -33 -96 5 -288 97 -491 l31 -67 -35 -21 -34
-22 -27 21 c-16 11 -58 51 -96 90 -37 39 -73 71 -81 71 -24 0 -39 -28 -32 -62
7 -37 69 -163 94 -191 11 -12 13 -22 7 -32 -6 -7 -49 -66 -96 -132 -111 -153
-207 -297 -218 -326 -10 -27 3 -57 25 -57 8 0 32 9 54 20 22 11 42 20 45 20
15 0 -31 -65 -81 -114 -69 -67 -68 -86 6 -86 27 0 50 -2 50 -5 0 -3 -13 -32
-30 -65 -16 -33 -30 -68 -30 -79 0 -25 27 -41 61 -34 26 5 26 4 32 -68 3 -40
4 -76 1 -79 -10 -8 -100 98 -165 195 -69 101 -132 222 -192 369 l-42 101 -3
600 c-1 329 0 605 2 612 4 11 207 13 1057 13 l1051 0 -5 -657z m-950 465 c66
-61 152 -181 201 -279 39 -79 116 -288 109 -295 -2 -2 -33 17 -70 42 l-67 45
-79 157 c-116 231 -173 372 -150 372 5 0 30 -19 56 -42z m-358 -117 c55 -86
197 -343 266 -482 53 -106 71 -130 91 -122 23 9 17 31 -36 129 l-49 93 35 7
c104 19 283 -72 429 -220 103 -105 140 -166 149 -251 29 -252 66 -447 116
-609 16 -54 30 -109 30 -121 0 -26 -14 -30 -145 -40 -70 -6 -83 -10 -102 -33
l-21 -25 -15 48 c-11 40 -21 53 -52 70 -58 33 -242 183 -277 226 -34 43 -58
50 -58 19 0 -12 33 -52 80 -99 79 -78 80 -79 80 -129 0 -28 7 -86 15 -129 8
-43 15 -88 15 -100 l0 -23 -445 0 c-245 0 -445 3 -445 8 -1 4 -2 95 -4 203 -1
107 -6 201 -11 208 -4 8 -18 11 -36 7 -35 -7 -35 -6 -8 45 24 49 22 98 -6 113
-11 6 -22 12 -24 13 -2 1 13 24 32 51 44 59 60 99 53 128 -8 30 -31 36 -72 19
-19 -8 -34 -10 -34 -6 0 5 35 57 77 117 42 60 90 129 107 154 55 81 80 110 92
110 7 0 28 -19 48 -42 19 -24 64 -68 100 -98 36 -30 62 -58 58 -61 -4 -3 -38
-14 -75 -23 -135 -33 -190 -74 -153 -115 19 -21 65 -36 163 -52 l72 -12 -25
-36 c-30 -45 -32 -87 -3 -96 42 -14 179 37 179 66 0 29 -16 31 -69 8 -28 -11
-55 -19 -60 -18 -6 2 5 24 24 48 19 24 35 48 35 53 0 14 -39 25 -132 37 -48 6
-98 15 -110 20 -23 9 -22 9 7 21 17 6 68 22 114 33 122 32 138 64 60 122 -63
46 -220 216 -256 276 -55 93 -49 96 32 20 150 -139 365 -264 365 -212 0 6 -26
50 -58 99 -133 203 -227 431 -239 581 -3 43 -3 87 1 96 6 17 8 17 26 0 11 -10
42 -52 69 -94z m776 -339 c16 -74 20 -212 6 -212 -23 0 -31 37 -36 171 -7 156
3 170 30 41z m-726 -192 c17 -27 28 -50 25 -50 -10 0 -49 22 -83 48 l-34 25
24 13 c34 19 34 19 68 -36z m856 -95 c-8 -69 -16 -76 -43 -33 -15 25 -14 28
12 68 15 23 30 40 33 37 2 -3 2 -35 -2 -72z m-1657 -525 c64 -151 156 -290
307 -465 l50 -57 -31 -57 -31 -56 -171 -3 -172 -2 0 360 c0 198 3 360 8 360 4
0 22 -36 40 -80z m2062 -420 l0 -220 -71 0 c-82 0 -79 -13 -26 125 19 50 47
141 63 203 15 61 29 112 31 112 2 0 3 -99 3 -220z"/>
<path d="M1417 3502 c-22 -24 -43 -78 -51 -128 -6 -31 -3 -44 8 -54 13 -10 19
-10 31 0 27 23 61 134 56 188 -1 18 -25 15 -44 -6z"/>
<path d="M2665 2270 l-110 -5 -6 -115 c-7 -132 -8 -1828 -1 -1998 4 -111 5
-114 31 -124 17 -7 390 -10 1120 -10 924 -1 1094 1 1102 13 5 8 9 497 9 1116
l0 1102 -22 13 c-18 9 -246 12 -1018 13 -547 0 -1044 -2 -1105 -5z m1915 -100
c16 -29 100 -283 95 -288 -2 -2 -45 24 -96 58 -189 128 -313 175 -382 146 -56
-23 -71 -55 -75 -162 l-4 -94 -78 73 c-193 179 -425 254 -577 188 -68 -30
-135 -103 -178 -194 -35 -72 -75 -209 -75 -254 0 -12 -4 -23 -9 -23 -6 0 -39
22 -75 49 -179 136 -354 191 -461 147 -19 -8 -36 -12 -37 -8 -1 4 -2 91 -2
194 l-1 188 972 0 c963 0 972 0 983 -20z m150 -102 l-1 -123 -34 102 c-19 56
-39 111 -45 123 -10 19 -8 20 35 20 l45 0 0 -122z m-1029 -34 c121 -35 256
-128 382 -265 97 -104 140 -106 117 -6 -17 78 -21 190 -7 227 12 33 14 35 60
34 62 0 198 -69 327 -165 52 -38 107 -75 123 -82 l27 -11 0 -366 0 -365 -30
53 c-113 205 -301 319 -600 363 -114 16 -330 6 -440 -21 -64 -16 -129 -22
-260 -26 -208 -6 -209 -6 -243 -40 -53 -52 -26 -122 53 -139 17 -4 30 -9 30
-12 0 -2 -27 -35 -60 -71 -74 -82 -117 -164 -163 -307 -107 -334 -87 -503 81
-671 l65 -64 -266 0 c-203 0 -266 3 -269 12 -2 7 -4 369 -3 805 1 758 2 793
20 812 25 29 88 44 147 36 48 -7 220 -83 232 -104 5 -7 -4 -11 -24 -11 -44 0
-69 -16 -86 -56 -12 -29 -12 -39 0 -68 30 -71 105 -88 158 -36 26 26 30 36 26
74 -3 48 -5 48 59 0 67 -51 104 -28 118 71 26 197 118 363 221 400 52 19 139
18 205 -1z m-655 -445 c17 -19 17 -23 3 -47 -18 -33 -54 -40 -80 -16 -23 21
-24 42 -2 66 21 24 55 23 79 -3z m1175 -222 c219 -58 362 -165 438 -329 66
-140 71 -173 71 -465 l0 -260 -31 -61 c-38 -77 -111 -152 -146 -152 -25 0 -25
0 13 42 54 59 79 103 99 172 38 132 -3 399 -75 479 -23 26 -36 32 -69 32 -76
0 -83 -24 -67 -225 7 -86 6 -116 -7 -161 -35 -120 -106 -177 -268 -215 -55
-13 -110 -29 -122 -35 -32 -17 -77 -61 -77 -76 0 -10 -68 -13 -352 -13 l-351
0 -48 31 c-74 47 -163 149 -190 216 -33 83 -33 244 0 360 l23 83 25 -20 c40
-31 88 -43 126 -31 78 26 117 112 83 183 -18 38 -56 64 -111 76 l-37 7 42 55
c24 30 65 78 92 106 57 59 61 87 13 92 -92 8 -138 44 -101 81 14 13 36 15 126
13 106 -3 358 19 430 38 19 5 112 8 205 6 144 -3 185 -7 266 -29z m-980 -436
c50 -50 37 -121 -28 -147 -31 -14 -38 -13 -71 3 -61 30 -68 98 -17 149 34 34
79 32 116 -5z m1323 -170 c10 -11 29 -55 44 -98 22 -67 26 -96 26 -203 1 -122
0 -127 -32 -192 -21 -44 -51 -84 -88 -117 l-56 -51 -221 0 -222 1 31 28 c25
22 55 34 130 51 170 39 233 80 286 188 l33 67 -2 173 -3 172 29 0 c15 0 36 -9
45 -19z m166 -621 c0 -38 -2 -40 -31 -40 l-30 0 28 40 c15 22 29 40 31 40 1 0
2 -18 2 -40z"/>
<path d="M3533 1078 c-6 -7 -25 -41 -43 -76 -35 -69 -37 -107 -5 -107 14 0 31
22 63 79 24 43 42 86 40 95 -4 20 -41 26 -55 9z"/>
<path d="M4371 1064 c-64 -81 42 -182 114 -109 53 52 18 135 -57 135 -28 0
-42 -7 -57 -26z m89 -18 c16 -20 9 -56 -12 -70 -40 -24 -80 44 -42 71 23 17
39 16 54 -1z"/>
<path d="M3925 926 c-28 -28 -75 -120 -75 -147 0 -26 27 -44 44 -30 28 23 97
152 94 174 -4 31 -33 33 -63 3z"/>
<path d="M4075 666 c-113 -50 -101 -211 19 -244 105 -29 197 78 150 175 -22
44 -76 83 -113 83 -14 -1 -39 -7 -56 -14z m116 -55 c37 -37 38 -79 3 -120 -54
-64 -154 -27 -154 56 1 86 91 124 151 64z"/>
<path d="M36 2254 c-14 -14 -16 -128 -16 -1108 0 -927 2 -1095 14 -1112 14
-19 39 -19 1119 -22 998 -2 1107 -1 1121 14 14 14 16 124 16 1107 0 601 -4
1097 -8 1104 -20 32 -68 33 -1147 33 -972 0 -1085 -2 -1099 -16z m304 -74 c0
-5 -9 -14 -21 -20 -24 -13 -79 -97 -79 -120 0 -10 14 -36 31 -59 l30 -42 -40
-44 c-78 -85 -87 -134 -36 -209 24 -35 24 -37 10 -113 -16 -95 -53 -235 -64
-246 -5 -5 -23 12 -40 38 l-31 46 0 390 0 389 120 0 c70 0 120 -4 120 -10z
m1267 -90 c20 -52 73 -180 119 -285 45 -104 82 -191 80 -192 -2 -2 -20 4 -42
13 -29 12 -56 15 -101 11 -56 -6 -63 -4 -63 11 0 10 -13 39 -29 64 -57 89
-183 123 -279 76 -67 -34 -95 -77 -100 -154 -3 -50 -9 -67 -23 -75 -25 -13
-59 -81 -59 -117 0 -16 -6 -34 -13 -40 -13 -11 -217 -92 -217 -87 0 2 -5 39
-11 81 -19 136 -83 314 -114 314 -27 0 -26 -21 3 -98 41 -106 61 -193 66 -286
3 -43 7 -80 9 -82 6 -7 310 116 326 131 13 13 12 17 -4 35 -16 17 -17 25 -7
59 11 36 37 69 47 59 2 -2 11 -29 18 -59 8 -29 18 -53 21 -52 4 1 17 21 29 45
28 55 68 63 116 22 l32 -27 -41 -18 c-28 -13 -45 -29 -54 -51 -17 -40 -13 -48
23 -48 34 0 59 -25 72 -75 13 -46 6 -55 -24 -28 -28 26 -62 36 -94 28 -23 -5
-24 -8 -10 -23 17 -19 33 -102 20 -102 -4 1 -24 24 -43 53 -40 58 -69 73 -126
63 -34 -6 -62 -31 -209 -181 -110 -112 -186 -181 -215 -195 -48 -24 -104 -29
-136 -12 -12 6 -44 68 -83 159 -36 81 -91 205 -124 276 -73 157 -86 224 -68
334 12 72 62 257 126 467 l26 86 560 -2 560 -3 36 -95z m83 92 c0 -5 -9 -17
-21 -28 -17 -16 -22 -16 -29 -4 -17 27 -11 40 20 40 17 0 30 -4 30 -8z m520
-273 c0 -154 -3 -279 -7 -277 -98 50 -109 53 -198 53 -77 0 -95 -3 -121 -22
l-31 -22 -86 197 c-47 108 -89 205 -92 214 -5 13 8 35 45 78 l52 60 219 0 219
0 0 -281z m-1851 152 c-22 -67 -24 -70 -41 -54 -27 25 -22 53 19 95 20 21 38
36 41 34 2 -3 -7 -36 -19 -75z m-81 -280 c-6 -28 -15 -51 -19 -51 -6 0 -18 34
-19 51 0 10 42 61 46 56 3 -2 -1 -27 -8 -56z m1210 -37 c38 -28 72 -100 72
-151 0 -55 19 -64 61 -29 76 64 219 4 219 -92 0 -57 -62 -109 -197 -165 -62
-26 -127 -56 -145 -67 -42 -25 -48 -25 -48 3 -1 35 -43 111 -68 123 -12 6 -25
14 -29 17 -11 11 67 38 89 31 19 -6 20 -3 14 22 -16 62 -84 108 -153 102 -39
-3 -44 -1 -50 20 -8 33 3 126 18 150 7 11 29 30 48 41 45 27 128 24 169 -5z
m627 -144 c26 -12 57 -38 70 -58 l25 -37 0 -707 0 -708 -111 0 -111 0 18 28
c96 144 155 296 174 448 25 198 -28 416 -162 674 -67 129 -138 315 -130 340 2
6 18 21 36 31 40 26 126 21 191 -11z m-212 -275 c33 -144 40 -204 40 -350 1
-321 -85 -572 -275 -811 l-58 -74 -110 0 -109 0 -7 35 c-13 73 1 137 59 269
32 71 66 160 77 199 32 113 43 270 31 407 -13 136 -16 150 -41 150 -25 0 -28
-15 -18 -75 5 -27 9 -113 9 -190 1 -174 -16 -263 -78 -405 -75 -173 -94 -230
-95 -290 0 -30 2 -66 6 -78 7 -22 6 -22 -83 -22 l-91 0 0 128 c0 157 -20 280
-71 435 -46 140 -121 306 -150 327 -19 15 -17 19 78 117 58 61 109 104 125
108 40 10 87 -23 127 -89 35 -58 45 -66 55 -41 3 8 15 15 26 15 12 0 48 23 81
50 65 54 144 97 279 150 60 24 96 46 125 75 22 23 43 39 46 36 4 -3 14 -37 22
-76z m-1604 -19 c32 -71 32 -75 17 -105 -27 -50 -76 -189 -102 -286 -21 -78
-29 -95 -69 -135 l-45 -45 0 280 c0 185 4 275 10 265 5 -8 10 -22 10 -30 0 -9
7 -26 16 -38 15 -22 17 -22 35 -6 10 9 19 21 19 26 0 14 64 148 71 148 3 0 21
-33 38 -74z m1092 -108 c8 -14 8 -23 0 -31 -7 -7 -13 -2 -21 18 -6 15 -13 32
-16 36 -3 5 2 6 11 3 8 -4 20 -15 26 -26z m647 -115 c146 -353 126 -619 -70
-930 l-40 -63 -125 0 -125 0 32 43 c71 93 144 212 175 285 91 209 133 489 106
705 -4 31 -4 57 0 57 3 0 25 -44 47 -97z m-1594 -93 c32 -77 66 -146 75 -154
9 -8 37 -20 62 -26 80 -20 153 9 260 102 33 28 61 49 64 46 10 -10 89 -187
117 -263 59 -159 79 -267 85 -443 l6 -162 -321 0 -320 0 -10 43 c-6 23 -32 78
-57 122 -129 223 -165 322 -165 454 1 146 48 315 111 395 11 14 23 26 27 26 4
0 33 -63 66 -140z m-254 -316 c0 -110 39 -218 149 -407 34 -60 65 -124 68
-143 l6 -34 -157 0 -156 0 0 298 1 297 32 22 c51 34 57 30 57 -33z"/>
</g>
</svg>
